<svg width="53" height="16" viewBox="0 0 53 16" fill="none" xmlns="http://www.w3.org/2000/svg">
<g clip-path="url(#clip0_196_123)">
<path d="M15.2037 2.09375V7.71026H13.5719V6.69365C13.4201 7.02214 13.1942 7.28385 12.8932 7.47875C12.593 7.67365 12.2437 7.77064 11.8453 7.77064C11.2381 7.77064 10.756 7.55561 10.3989 7.12647C10.0418 6.69731 9.86243 6.10619 9.86243 5.35495V2.09375H11.4753V5.14358C11.4753 5.52606 11.5684 5.82253 11.7556 6.03391C11.9419 6.24528 12.1937 6.35142 12.5094 6.35142C12.825 6.35142 13.0976 6.24071 13.2873 6.01926C13.4771 5.79783 13.5719 5.48213 13.5719 5.0731V2.09375H15.2037Z" fill="white"/>
<path d="M19.8571 2.55678C20.259 2.91272 20.51 3.38212 20.6117 3.96593H19.0938C19.0498 3.73807 18.9497 3.55781 18.7953 3.42789C18.6401 3.29705 18.446 3.23116 18.2115 3.23116C18.0277 3.23116 17.8889 3.27324 17.794 3.35743C17.6992 3.44162 17.6517 3.56056 17.6517 3.71522C17.6517 3.88997 17.7388 4.02083 17.9122 4.10775C18.0864 4.1947 18.3598 4.28253 18.7332 4.36945C19.1377 4.47011 19.4698 4.57259 19.7294 4.676C19.989 4.78032 20.2133 4.94959 20.403 5.18384C20.5928 5.41901 20.6876 5.73378 20.6876 6.12999C20.6876 6.45209 20.6057 6.73758 20.441 6.98556C20.2762 7.23353 20.0391 7.42843 19.7294 7.56935C19.4198 7.71027 19.0524 7.78072 18.6289 7.78072C17.9139 7.78072 17.3421 7.61327 16.9117 7.27745C16.4813 6.94163 16.2191 6.46215 16.1243 5.83809H17.6897C17.7147 6.07967 17.8113 6.2645 17.9786 6.39169C18.1459 6.51889 18.3633 6.58293 18.6289 6.58293C18.8126 6.58293 18.9515 6.53719 19.0463 6.44751C19.1412 6.35692 19.1886 6.23796 19.1886 6.08973C19.1886 5.89483 19.1015 5.75574 18.9282 5.67156C18.754 5.58737 18.4711 5.49861 18.0786 5.40436C17.6862 5.31743 17.3636 5.22319 17.1109 5.12253C16.8582 5.02189 16.64 4.85901 16.4563 4.6339C16.2726 4.40879 16.1812 4.10227 16.1812 3.71337C16.1812 3.2101 16.3615 2.80201 16.722 2.48998C17.0825 2.17795 17.5913 2.02148 18.2494 2.02148C18.9075 2.02148 19.456 2.19899 19.8579 2.55493L19.8571 2.55678Z" fill="white"/>
<path d="M24.5857 6.23069V7.7103H23.8552C23.2351 7.7103 22.753 7.54743 22.4088 7.22259C22.0638 6.89684 21.8913 6.35879 21.8913 5.60663V3.54321H21.1798V2.0938H21.8913V0.714844H23.5137V2.0938H24.5762V3.54321H23.5137V5.63683C23.5137 5.85827 23.5568 6.01291 23.6422 6.09984C23.7276 6.18676 23.8716 6.23069 24.0734 6.23069H24.5857Z" fill="white"/>
<path d="M27.1896 3.89572C26.9774 4.13729 26.8722 4.47311 26.8722 4.90226C26.8722 5.33141 26.9783 5.66724 27.1896 5.90881C27.4018 6.15037 27.6812 6.27116 28.0297 6.27116C28.3781 6.27116 28.6515 6.14672 28.8697 5.89874C29.0879 5.65077 29.1966 5.31861 29.1966 4.90226C29.1966 4.48591 29.0879 4.14552 28.8697 3.90122C28.6515 3.65599 28.3712 3.53336 28.0297 3.53336C27.6881 3.53336 27.4018 3.65414 27.1896 3.89572ZM28.5514 2.31545C28.8421 2.51035 29.0577 2.77481 29.1966 3.11062V2.09401H30.8094V7.71052H29.1966V6.69391C29.0577 7.02973 28.8421 7.29417 28.5514 7.48908C28.2608 7.68398 27.9124 7.78097 27.5079 7.78097C27.0714 7.78097 26.6807 7.66568 26.3366 7.43417C25.9916 7.20267 25.7199 6.86868 25.5207 6.43313C25.3215 5.99665 25.2214 5.48697 25.2214 4.90317C25.2214 4.31939 25.3215 3.80148 25.5207 3.36866C25.7199 2.93585 25.9916 2.60368 26.3366 2.37219C26.6816 2.14067 27.0714 2.02539 27.5079 2.02539C27.9124 2.02539 28.2608 2.12238 28.5514 2.31729V2.31545Z" fill="white"/>
<path d="M44.3175 0.211394C44.4468 0.0704746 44.6072 0 44.797 0C44.9867 0 45.1558 0.0704746 45.286 0.211394C45.4154 0.352306 45.4801 0.527079 45.4801 0.73479C45.4801 0.942494 45.4154 1.10538 45.286 1.24354C45.1566 1.38173 44.9936 1.44943 44.797 1.44943C44.6003 1.44943 44.4477 1.38079 44.3175 1.24354C44.1881 1.10629 44.1234 0.936082 44.1234 0.73479C44.1234 0.533468 44.1881 0.352306 44.3175 0.211394ZM42.8357 3.89533C42.6235 4.13691 42.5183 4.47272 42.5183 4.90188C42.5183 5.33102 42.6244 5.66684 42.8357 5.90841C43.0479 6.14998 43.3273 6.27077 43.6758 6.27077C44.0242 6.27077 44.2976 6.14632 44.5149 5.89834C44.7332 5.65037 44.8418 5.31822 44.8418 4.90188C44.8418 4.48552 44.7332 4.14513 44.5149 3.90081C44.2967 3.65558 44.0173 3.53297 43.6758 3.53297C43.3342 3.53297 43.0479 3.65376 42.8357 3.89533ZM42.3915 0.211394C42.5209 0.0704746 42.6839 0 42.8806 0C43.0772 0 43.2394 0.0704746 43.3696 0.211394C43.499 0.352306 43.5636 0.527079 43.5636 0.73479C43.5636 0.942494 43.499 1.10538 43.3696 1.24354C43.2402 1.38079 43.0772 1.44943 42.8806 1.44943C42.6839 1.44943 42.5218 1.38079 42.3915 1.24354C42.2622 1.10629 42.1975 0.936082 42.1975 0.73479C42.1975 0.533468 42.2622 0.352306 42.3915 0.211394ZM44.1976 2.31506C44.4882 2.50997 44.7038 2.77441 44.8427 3.11024V2.09361H46.4555V7.71012H44.8427V6.69352C44.7038 7.02934 44.4882 7.29378 44.1976 7.48868C43.9069 7.68359 43.5585 7.78058 43.154 7.78058C42.7176 7.78058 42.3269 7.66528 41.9827 7.43378C41.6377 7.20227 41.3661 6.86829 41.1668 6.43273C40.9676 5.99625 40.8684 5.48657 40.8684 4.90278C40.8684 4.31898 40.9685 3.80109 41.1668 3.36827C41.3661 2.93546 41.6377 2.6033 41.9827 2.37178C42.3277 2.14029 42.7184 2.02498 43.154 2.02498C43.5585 2.02498 43.9069 2.12197 44.1976 2.31688V2.31506Z" fill="white"/>
<path d="M50.6817 3.65878C50.4885 3.47396 50.2504 3.38244 49.9658 3.38244C49.6812 3.38244 49.4216 3.47671 49.2258 3.66429C49.0301 3.85187 48.9188 4.12728 48.8938 4.48964H50.962C50.968 4.12089 50.8749 3.84363 50.6817 3.65878ZM52.5559 5.21436H48.8843C48.9033 5.6371 49.0042 5.94089 49.1879 6.12573C49.3716 6.31057 49.6053 6.40299 49.8899 6.40299C50.1306 6.40299 50.3298 6.33894 50.4876 6.21174C50.6455 6.08456 50.7498 5.91985 50.8007 5.71854H52.5179C52.448 6.11475 52.2962 6.46887 52.0625 6.7809C51.8288 7.09293 51.5312 7.33816 51.1707 7.51568C50.8102 7.69319 50.4083 7.78195 49.9658 7.78195C49.4475 7.78195 48.9869 7.66666 48.5859 7.43515C48.184 7.20365 47.87 6.86966 47.6415 6.4341C47.4138 5.99763 47.2999 5.48795 47.2999 4.90415C47.2999 4.32037 47.412 3.80245 47.6372 3.36964C47.8614 2.93682 48.1762 2.60466 48.5816 2.37317C48.9861 2.14164 49.4484 2.02637 49.9667 2.02637C50.485 2.02637 50.9534 2.14074 51.3518 2.36859C51.7503 2.59643 52.0591 2.9176 52.2773 3.32938C52.4955 3.74207 52.6041 4.21695 52.6041 4.75409C52.6041 4.89501 52.5886 5.04965 52.5567 5.21711L52.5559 5.21436Z" fill="white"/>
<path d="M1.19798 10.6257C1.41187 10.4885 1.6594 10.4189 1.93885 10.4189V11.2315H1.72926C1.4205 11.2315 1.1721 11.3111 0.984947 11.4703C0.797788 11.6295 0.703778 11.8931 0.703778 12.26V14.0873H0V10.4775H0.703778V11.1848C0.819351 10.9487 0.984085 10.7621 1.19798 10.6248V10.6257Z" fill="white"/>
<path d="M3.16794 10.4781V14.088H2.46417V10.4781H3.16794ZM2.48918 9.11564C2.57111 9.03238 2.68065 8.99121 2.81606 8.99121C2.95147 8.99121 3.06186 9.03238 3.14638 9.11564C3.23091 9.19892 3.27317 9.30324 3.27317 9.43042C3.27317 9.55762 3.23091 9.66009 3.14638 9.73878C3.06186 9.81747 2.95147 9.85682 2.81606 9.85682C2.68065 9.85682 2.57111 9.81747 2.48918 9.73878C2.40638 9.66009 2.36584 9.55762 2.36584 9.43042C2.36584 9.30324 2.40724 9.19892 2.48918 9.11564Z" fill="white"/>
<path d="M4.72472 10.4781V14.088H4.02094V10.4781H4.72472ZM4.04509 9.11564C4.12702 9.03238 4.23656 8.99121 4.37196 8.99121C4.50737 8.99121 4.61777 9.03238 4.70229 9.11564C4.78682 9.19892 4.82908 9.30324 4.82908 9.43042C4.82908 9.55762 4.78682 9.66009 4.70229 9.73878C4.61777 9.81747 4.50737 9.85682 4.37196 9.85682C4.23656 9.85682 4.12702 9.81747 4.04509 9.73878C3.96316 9.66009 3.92175 9.55762 3.92175 9.43042C3.92175 9.30324 3.96316 9.19892 4.04509 9.11564Z" fill="white"/>
<path d="M6.40663 11.4054C6.21947 11.6177 6.12545 11.9086 6.12545 12.2802C6.12545 12.6517 6.2186 12.9426 6.40663 13.1549C6.59378 13.3672 6.8439 13.4724 7.15698 13.4724C7.35449 13.4724 7.53129 13.423 7.68826 13.3251C7.84438 13.2272 7.96855 13.0881 8.05913 12.9088C8.14969 12.7294 8.19539 12.5199 8.19539 12.2802C8.19539 12.0404 8.14969 11.8354 8.05913 11.6543C7.96855 11.4731 7.84524 11.3331 7.68826 11.2352C7.53216 11.1373 7.35449 11.0879 7.15698 11.0879C6.8439 11.0879 6.59378 11.194 6.40663 11.4054ZM7.73138 10.6752C7.94959 10.8371 8.10397 11.0513 8.19454 11.3175V10.4793H8.89831V14.1285C8.89831 14.4643 8.83364 14.7627 8.70339 15.0225C8.57402 15.2824 8.38772 15.4864 8.1445 15.6347C7.90129 15.7829 7.61323 15.857 7.28031 15.857C6.8025 15.857 6.41697 15.7372 6.12287 15.4965C5.82877 15.2559 5.6442 14.931 5.57002 14.5202H6.26776C6.32555 14.7343 6.43681 14.9008 6.60154 15.0216C6.76628 15.1415 6.97585 15.2019 7.23115 15.2019C7.51059 15.2019 7.74174 15.1104 7.92285 14.9264C8.10397 14.7434 8.19454 14.4762 8.19454 14.1276V13.2501C8.10397 13.5164 7.94959 13.7305 7.73138 13.8924C7.51318 14.0544 7.25013 14.1349 6.94136 14.1349C6.63259 14.1349 6.38075 14.0608 6.14788 13.9126C5.91501 13.7643 5.73303 13.5502 5.60107 13.2702C5.46911 12.9911 5.40356 12.6608 5.40356 12.2811C5.40356 11.9013 5.46911 11.5783 5.60107 11.2983C5.73303 11.0192 5.91501 10.8051 6.14788 10.6559C6.38075 10.5077 6.64467 10.4336 6.94136 10.4336C7.23805 10.4336 7.51318 10.5141 7.73138 10.6761V10.6752Z" fill="white"/>
<path d="M10.4474 10.4781V14.088H9.74358V10.4781H10.4474ZM9.7686 9.11564C9.85053 9.03238 9.96007 8.99121 10.0955 8.99121C10.2309 8.99121 10.3413 9.03238 10.4258 9.11564C10.5103 9.19892 10.5526 9.30324 10.5526 9.43042C10.5526 9.55762 10.5103 9.66009 10.4258 9.73878C10.3413 9.81747 10.2309 9.85682 10.0955 9.85682C9.96007 9.85682 9.85053 9.81747 9.7686 9.73878C9.6858 9.66009 9.64526 9.55762 9.64526 9.43042C9.64526 9.30324 9.68667 9.19892 9.7686 9.11564Z" fill="white"/>
<path d="M12.13 11.4054C11.9429 11.6177 11.8488 11.9086 11.8488 12.2802C11.8488 12.6517 11.942 12.9426 12.13 13.1549C12.3172 13.3672 12.5673 13.4724 12.8804 13.4724C13.0779 13.4724 13.2547 13.423 13.4117 13.3251C13.5686 13.2272 13.6919 13.0881 13.7825 12.9088C13.8731 12.7294 13.9179 12.5199 13.9179 12.2802C13.9179 12.0404 13.8722 11.8354 13.7825 11.6543C13.6919 11.4731 13.5686 11.3331 13.4117 11.2352C13.2547 11.1373 13.0779 11.0879 12.8804 11.0879C12.5673 11.0879 12.3172 11.194 12.13 11.4054ZM13.4548 10.6752C13.673 10.8371 13.8274 11.0513 13.9179 11.3175V10.4793H14.6217V14.1285C14.6217 14.4643 14.557 14.7627 14.4268 15.0225C14.2974 15.2824 14.1111 15.4864 13.8679 15.6347C13.6247 15.7829 13.3366 15.857 13.0037 15.857C12.5259 15.857 12.1404 15.7372 11.8463 15.4965C11.5522 15.2559 11.3676 14.931 11.2934 14.5202H11.9912C12.0489 14.7343 12.1602 14.9008 12.3249 15.0216C12.4897 15.1415 12.6992 15.2019 12.9545 15.2019C13.234 15.2019 13.4651 15.1104 13.6462 14.9264C13.8274 14.7434 13.9179 14.4762 13.9179 14.1276V13.2501C13.8274 13.5164 13.673 13.7305 13.4548 13.8924C13.2366 14.0544 12.9735 14.1349 12.6647 14.1349C12.356 14.1349 12.1041 14.0608 11.8713 13.9126C11.6384 13.7643 11.4564 13.5502 11.3245 13.2702C11.1925 12.9911 11.127 12.6608 11.127 12.2811C11.127 11.9013 11.1925 11.5783 11.3245 11.2983C11.4564 11.0192 11.6384 10.8051 11.8713 10.6559C12.1041 10.5077 12.3681 10.4336 12.6647 10.4336C12.9614 10.4336 13.2366 10.5141 13.4548 10.6761V10.6752Z" fill="white"/>
<path d="M17.2952 9.3719C17.3608 9.30235 17.4436 9.26758 17.5419 9.26758C17.6402 9.26758 17.723 9.30235 17.7886 9.3719C17.8541 9.44144 17.8878 9.52927 17.8878 9.63359C17.8878 9.73791 17.855 9.82027 17.7886 9.89254C17.723 9.96484 17.6402 10.0005 17.5419 10.0005C17.4436 10.0005 17.3608 9.96484 17.2952 9.89254C17.2297 9.82027 17.1969 9.73425 17.1969 9.63359C17.1969 9.53293 17.2297 9.44144 17.2952 9.3719ZM16.2025 9.3719C16.268 9.30235 16.3508 9.26758 16.4492 9.26758C16.5475 9.26758 16.6311 9.30235 16.6993 9.3719C16.7674 9.44144 16.801 9.52927 16.801 9.63359C16.801 9.73791 16.7674 9.82027 16.6993 9.89254C16.6311 9.96484 16.5483 10.0005 16.4492 10.0005C16.35 10.0005 16.268 9.96484 16.2025 9.89254C16.1369 9.82027 16.1033 9.73425 16.1033 9.63359C16.1033 9.53293 16.1361 9.44144 16.2025 9.3719ZM18.6045 10.4791V14.0889H17.8947V13.3029C17.8084 13.5692 17.6575 13.776 17.4436 13.9224C17.2297 14.0688 16.9804 14.142 16.6967 14.142C16.3017 14.142 15.9843 14.0066 15.7462 13.7357C15.5073 13.4649 15.3883 13.0787 15.3883 12.5764V10.48H16.0921V12.4977C16.0921 12.8252 16.1706 13.0778 16.3267 13.2544C16.4828 13.431 16.6975 13.5198 16.9692 13.5198C17.2409 13.5198 17.4738 13.4237 17.642 13.2315C17.811 13.0394 17.8955 12.7603 17.8955 12.3933V10.4809H18.6053L18.6045 10.4791Z" fill="white"/>
<path d="M24.6713 10.8261C24.9119 11.097 25.0326 11.4831 25.0326 11.9855V14.0882H24.3288V12.0642C24.3288 11.7494 24.2547 11.506 24.1063 11.334C23.958 11.161 23.7544 11.075 23.4948 11.075C23.2188 11.075 22.9998 11.1674 22.8376 11.3532C22.6746 11.5389 22.5936 11.8107 22.5936 12.1685V14.0882H21.8898V12.0642C21.8898 11.7494 21.8156 11.506 21.6672 11.334C21.5189 11.1619 21.3154 11.075 21.0558 11.075C20.7798 11.075 20.5607 11.1674 20.3985 11.3532C20.2355 11.5389 20.1545 11.8107 20.1545 12.1685V14.0882H19.4507V10.4784H20.1545V11.2315C20.2407 10.9698 20.3847 10.7685 20.5866 10.6285C20.7884 10.4885 21.0247 10.4189 21.2964 10.4189C21.5681 10.4189 21.8259 10.4931 22.0347 10.6413C22.2425 10.7895 22.3934 11.0036 22.4883 11.2836C22.5867 11.0128 22.7453 10.8014 22.9635 10.6486C23.1818 10.4958 23.4284 10.4189 23.7044 10.4189C24.108 10.4189 24.4298 10.5544 24.6704 10.8252L24.6713 10.8261Z" fill="white"/>
<path d="M28.7068 10.8252C28.9457 11.0961 29.0648 11.4822 29.0648 11.9846V14.0873H28.361V12.0633C28.361 11.7403 28.2825 11.4904 28.1264 11.3129C27.9703 11.1363 27.7564 11.0476 27.4838 11.0476C27.2113 11.0476 26.9793 11.1427 26.8111 11.3322C26.6421 11.5225 26.5575 11.8006 26.5575 12.1676V14.0873H25.8538V10.4775H26.5575V11.2699C26.6481 10.9991 26.8008 10.7895 27.0147 10.6413C27.2285 10.4931 27.4761 10.4189 27.7555 10.4189C28.1505 10.4189 28.4679 10.5544 28.706 10.8252H28.7068Z" fill="white"/>
<path d="M30.7163 11.4044C30.5292 11.6167 30.4352 11.9077 30.4352 12.2792C30.4352 12.6507 30.5283 12.9417 30.7163 13.154C30.9035 13.3663 31.1536 13.4715 31.4667 13.4715C31.6642 13.4715 31.841 13.4221 31.998 13.3242C32.1541 13.2263 32.2774 13.0872 32.3688 12.9078C32.4594 12.7285 32.5042 12.519 32.5042 12.2792C32.5042 12.0395 32.4585 11.8345 32.3688 11.6533C32.2782 11.4722 32.1549 11.3321 31.998 11.2342C31.8418 11.1363 31.6642 11.0869 31.4667 11.0869C31.1536 11.0869 30.9035 11.1931 30.7163 11.4044ZM32.0411 10.6742C32.2593 10.8362 32.4137 11.0503 32.5042 11.3166V10.4784H33.208V14.0882H32.5042V13.2501C32.4137 13.5163 32.2593 13.7305 32.0411 13.8924C31.8229 14.0544 31.5598 14.1349 31.2511 14.1349C30.9423 14.1349 30.6904 14.0608 30.4576 13.9126C30.2247 13.7643 30.0427 13.5502 29.9108 13.2702C29.7788 12.9911 29.7133 12.6608 29.7133 12.281C29.7133 11.9013 29.7788 11.5783 29.9108 11.2983C30.0427 11.0183 30.2247 10.8051 30.4576 10.6559C30.6904 10.5077 30.9544 10.4336 31.2511 10.4336C31.5477 10.4336 31.8229 10.5141 32.0411 10.6761V10.6742Z" fill="white"/>
<path d="M34.8836 11.4044C34.6964 11.6167 34.6024 11.9077 34.6024 12.2792C34.6024 12.6507 34.6955 12.9417 34.8836 13.154C35.0707 13.3663 35.3208 13.4715 35.6339 13.4715C35.8314 13.4715 36.0082 13.4221 36.1652 13.3242C36.3213 13.2263 36.4446 13.0872 36.5361 12.9078C36.6266 12.7285 36.6715 12.519 36.6715 12.2792C36.6715 12.0395 36.6257 11.8345 36.5361 11.6533C36.4455 11.4722 36.3222 11.3321 36.1652 11.2342C36.0091 11.1363 35.8314 11.0869 35.6339 11.0869C35.3208 11.0869 35.0707 11.1931 34.8836 11.4044ZM36.2083 10.6742C36.4265 10.8362 36.5809 11.0503 36.6715 11.3166V10.4784H37.3752V14.0882H36.6715V13.2501C36.5809 13.5163 36.4265 13.7305 36.2083 13.8924C35.9901 14.0544 35.7271 14.1349 35.4183 14.1349C35.1095 14.1349 34.8577 14.0608 34.6248 13.9126C34.3919 13.7643 34.21 13.5502 34.078 13.2702C33.946 12.9911 33.8805 12.6608 33.8805 12.281C33.8805 11.9013 33.946 11.5783 34.078 11.2983C34.21 11.0183 34.3919 10.8051 34.6248 10.6559C34.8577 10.5077 35.1216 10.4336 35.4183 10.4336C35.715 10.4336 35.9901 10.5141 36.2083 10.6761V10.6742Z" fill="white"/>
<path d="M40.2991 10.7566C40.5397 10.9725 40.6872 11.2626 40.7407 11.625H40.074C40.0455 11.4282 39.9662 11.2699 39.836 11.15C39.7066 11.0302 39.5341 10.9698 39.3202 10.9698C39.1434 10.9698 39.0063 11.0146 38.9097 11.1043C38.8131 11.194 38.7648 11.3147 38.7648 11.4676C38.7648 11.581 38.8001 11.6725 38.87 11.743C38.9399 11.8125 39.0278 11.8674 39.1322 11.9068C39.2374 11.9461 39.3866 11.9901 39.5798 12.0376C39.8351 12.0989 40.0421 12.1621 40.1999 12.228C40.3586 12.2938 40.494 12.3973 40.6079 12.5391C40.7209 12.6809 40.7778 12.874 40.7778 13.1192C40.7778 13.4203 40.67 13.6655 40.4535 13.8531C40.237 14.0407 39.9464 14.1349 39.5798 14.1349C39.1555 14.1349 38.8131 14.0297 38.5517 13.8201C38.2904 13.6106 38.1326 13.3178 38.0791 12.9426H38.7648C38.7855 13.1393 38.8674 13.2986 39.0114 13.4212C39.1555 13.5438 39.3452 13.6042 39.5798 13.6042C39.7489 13.6042 39.8808 13.5575 39.9783 13.4633C40.0749 13.369 40.1232 13.2501 40.1232 13.1064C40.1232 12.9801 40.0861 12.8795 40.0119 12.8054C39.9377 12.7312 39.8455 12.6736 39.7342 12.6315C39.6229 12.5903 39.4711 12.5473 39.2771 12.5034C39.0304 12.4421 38.8295 12.3808 38.6751 12.3204C38.5207 12.2591 38.3887 12.1603 38.2801 12.0221C38.1705 11.8848 38.1162 11.6982 38.1162 11.4621C38.1162 11.1565 38.224 10.9085 38.4405 10.7181C38.657 10.5278 38.9562 10.4336 39.3392 10.4336C39.7221 10.4336 40.0585 10.5416 40.2991 10.7575V10.7566Z" fill="white"/>
<path d="M42.1864 10.4781V14.088H41.4826V10.4781H42.1864ZM41.5068 9.11564C41.5887 9.03238 41.6982 8.99121 41.8336 8.99121C41.969 8.99121 42.0794 9.03238 42.164 9.11564C42.2485 9.19892 42.2907 9.30324 42.2907 9.43042C42.2907 9.55762 42.2485 9.66009 42.164 9.73878C42.0794 9.81747 41.969 9.85682 41.8336 9.85682C41.6982 9.85682 41.5887 9.81747 41.5068 9.73878C41.424 9.66009 41.3834 9.55762 41.3834 9.43042C41.3834 9.30324 41.4248 9.19892 41.5068 9.11564Z" fill="white"/>
<path d="M46.1744 10.4785V14.0883H45.4646V13.3023C45.3784 13.5686 45.2283 13.7754 45.0135 13.9218C44.7996 14.0682 44.5504 14.1414 44.2666 14.1414C43.8716 14.1414 43.5542 14.006 43.3162 13.7351C43.0773 13.4643 42.9583 13.0781 42.9583 12.5758V10.4794H43.662V12.4971C43.662 12.8247 43.7405 13.0772 43.8966 13.2538C44.0527 13.4304 44.2675 13.5192 44.5392 13.5192C44.8109 13.5192 45.0437 13.4231 45.2119 13.2309C45.381 13.0388 45.4655 12.7597 45.4655 12.3928V10.4804H46.1753L46.1744 10.4785Z" fill="white"/>
<path d="M52.2412 10.8261C52.4818 11.097 52.6026 11.4831 52.6026 11.9855V14.0882H51.8988V12.0642C51.8988 11.7494 51.8246 11.506 51.6763 11.334C51.5279 11.161 51.3244 11.075 51.0648 11.075C50.7888 11.075 50.5697 11.1674 50.4076 11.3532C50.2446 11.5389 50.1635 11.8107 50.1635 12.1685V14.0882H49.4597V12.0642C49.4597 11.7494 49.3855 11.506 49.2372 11.334C49.0888 11.161 48.8853 11.075 48.6257 11.075C48.3497 11.075 48.1306 11.1674 47.9685 11.3532C47.8055 11.5389 47.7244 11.8107 47.7244 12.1685V14.0882H47.0206V10.4784H47.7244V11.2315C47.8107 10.9698 47.9547 10.7685 48.1565 10.6285C48.3583 10.4885 48.5947 10.4189 48.8663 10.4189C49.138 10.4189 49.3959 10.4931 49.6037 10.6413C49.8116 10.7895 49.9625 11.0036 50.0574 11.2836C50.1557 11.0128 50.3144 10.8014 50.5326 10.6486C50.7508 10.4958 50.9975 10.4189 51.2735 10.4189C51.6771 10.4189 51.9988 10.5544 52.2395 10.8252L52.2412 10.8261Z" fill="white"/>
<path d="M3.13619 2.09375L1.79591 7.71026H0.00109863L1.34138 2.09375H3.13619Z" fill="white"/>
<path d="M6.27146 2.09375L4.93116 7.71026H3.13635L4.47664 2.09375H6.27146Z" fill="white"/>
<path d="M9.4056 2.09375L8.06532 7.71026H6.27051L7.6108 2.09375H9.4056Z" fill="white"/>
<path d="M3.13624 2.09375L3.87969 4.53141H2.08488L1.34143 2.09375H3.13624Z" fill="white"/>
<path d="M6.28505 2.09375L7.0285 4.53141H5.23368L4.49023 2.09375H6.28505Z" fill="white"/>
<path d="M39.3523 2.09375L40.6926 7.71026H38.8978L37.5575 2.09375H39.3523Z" fill="white"/>
<path d="M36.2172 2.09375L37.5575 7.71026H35.7627L34.4224 2.09375H36.2172Z" fill="white"/>
<path d="M33.0829 2.09375L34.4232 7.71026H32.6284L31.2881 2.09375H33.0829Z" fill="white"/>
<path d="M39.3522 2.09375L38.6088 4.53141H36.814L37.5574 2.09375H39.3522Z" fill="white"/>
<path d="M36.2034 2.09375L35.46 4.53141H33.6652L34.4086 2.09375H36.2034Z" fill="white"/>
</g>
<defs>
<clipPath id="clip0_196_123">
<rect width="52.6042" height="15.8567" fill="white"/>
</clipPath>
</defs>
</svg>
